<svg xmlns="http://www.w3.org/2000/svg" width="32" height="32" viewBox="0 0 32 32"><path d="M14.514 5.155c1.551.14 3.271.591 4.5 1.354l-.941 1.208 5.236.909-1.784-5.339-1.11 1.424c-.771-.51-1.571-.844-2.512-1.16-1.27-.428-3.39-.791-5.012-.579l-.08.009a8.331 8.331 0 00-.354.041 9.675 9.675 0 00-.863.149c-2.125.481-3.946 1.549-5.199 3.135l-.024.03c-.072.093-.144.184-.213.277a9.13 9.13 0 00-1.049 1.815l-.023.06 2.397.079c1.421-2.449 4.219-3.664 7.03-3.411zm-.63 21.69c-1.551-.14-3.271-.591-4.5-1.352l.941-1.207-5.237-.91 1.788 5.339 1.11-1.422c.771.51 1.571.844 2.513 1.16 1.27.427 3.39.791 5.013.579l.08-.009c.119-.011.236-.025.354-.041.288-.038.575-.084.863-.149 2.125-.481 3.946-1.549 5.199-3.135l.024-.03a9.13 9.13 0 001.261-2.092l.023-.06-2.398-.079c-1.424 2.448-4.221 3.663-7.032 3.41zM7.8 18.564q0-2.439-2.58-2.814 1.219-.229 1.836-.944t.617-1.899q0-1.5-1.075-2.317-1.015-.779-2.825-.779h-.021c-1.22 0-2.384.235-3.452.661l.063-.022.406 1.692q1.59-.66 2.741-.66.965 0 1.5.428a1.437 1.437 0 01.541 1.201v-.004q0 .896-.838 1.412-.728.456-2.301.456-.346 0-.795-.043v1.632q.618-.034 1-.034 3.063 0 3.063 1.962l.001.048c0 .514-.2.981-.527 1.328l.001-.001q-.601.642-1.875.642a6.657 6.657 0 01-2.89-.694l.039.017-.43 1.721a9.23 9.23 0 003.396.635h.041-.002q2.039 0 3.139-.896 1.226-.999 1.226-2.732zm8.139-7.082c.505.019.983.098 1.438.23l-.042-.01.165-1.76a11.848 11.848 0 00-1.577-.135h-.013q-3.485 0-4.899 3.011-.863 1.836-.863 4.331 0 2.335.93 3.613 1.04 1.421 3.181 1.421 1.946 0 3.045-1.201 1.024-1.116 1.024-2.977 0-1.675-.804-2.648-.948-1.159-2.625-1.159l-.08-.001c-.942 0-1.79.397-2.389 1.032l-.002.002q.144-1.404.813-2.375.945-1.374 2.696-1.374zm-3.079 5.009a1.874 1.874 0 011.476-.642h-.003l.066-.001a1.71 1.71 0 011.361.673l.003.004q.465.601.465 1.616 0 1.1-.529 1.75a1.73 1.73 0 01-1.354.652l-.067-.001h.003l-.056.001a1.83 1.83 0 01-1.388-.634l-.002-.002q-.541-.625-.541-1.75-.001-1.024.565-1.668zm11.276-6.684q-2.335 0-3.393 1.861-.82 1.455-.82 4.264 0 3.197 1.027 4.725t3.185 1.527q2.335 0 3.392-1.875.82-1.455.82-4.315 0-3.155-1.032-4.674t-3.18-1.514zm1.583 9.58q-.516 1.104-1.582 1.104t-1.616-1.168q-.483-1.049-.483-3.375 0-2.259.516-3.354t1.582-1.095q1.082 0 1.616 1.168.483 1.049.483 3.332t-.517 3.387zm5.72-10.831C31.061 8.211 30.556 8 30.001 8s-1.059.211-1.439.557l.002-.002A1.887 1.887 0 0028 9.972v-.003a1.918 1.918 0 002.013 2.016h-.005l.078.002a1.915 1.915 0 001.913-1.998v.004L32 9.93a1.95 1.95 0 00-.563-1.373zm-.774 2.135a1.001 1.001 0 01-1.331-.001l.001.001a.996.996 0 01-.242-.652l.002-.067v.003l-.001-.052c0-.246.096-.47.252-.636v.001a.986.986 0 011.314.007l-.001-.001c.156.17.251.397.251.647l-.001.053v-.002a.961.961 0 01-.244.701l.001-.001z"/></svg>