<svg xmlns="http://www.w3.org/2000/svg" width="32" height="32" viewBox="0 0 32 32"><path d="M17.445 29.352l3.105.828a4.556 4.556 0 005.549-3.186L27 23.61c-2.181 3.121-5.578 5.262-9.49 5.736zM13.92 2.479l-2.47-.659a4.556 4.556 0 00-5.549 3.186L5.25 7.464c2.106-2.639 5.138-4.461 8.596-4.976zM2.459 17.922l-.681 2.554a4.555 4.555 0 003.19 5.548l2.821.751c-2.809-2.097-4.762-5.206-5.32-8.777zM27 5.968l-2.786-.742c2.885 2.27 4.813 5.644 5.145 9.474l.862-3.172a4.555 4.555 0 00-3.189-5.552z"/><path d="M15.938 3.54c-6.82 0-12.349 5.529-12.349 12.349s5.529 12.349 12.349 12.349 12.349-5.529 12.349-12.349S22.758 3.54 15.938 3.54zm-3.449 3.345h.001a3.511 3.511 0 11.002 7.022 3.511 3.511 0 01-.003-7.022zm-1.792 16.341a3.511 3.511 0 110-7.022 3.511 3.511 0 010 7.022zM14.375 16a1.558 1.558 0 113.116 0 1.558 1.558 0 01-3.116 0zm5.174 8.944a3.511 3.511 0 113.511-3.511 3.511 3.511 0 01-3.506 3.511zm1.866-9.334a3.511 3.511 0 113.511-3.511 3.511 3.511 0 01-3.506 3.511z"/></svg>