<svg xmlns="http://www.w3.org/2000/svg" width="32" height="32" viewBox="0 0 32 32"><path d="M22.019 20.63a2.99 2.99 0 11-5.982 0 2.99 2.99 0 015.982 0zM17.274 16a1.328 1.328 0 11-2.656 0 1.328 1.328 0 012.656 0zm-2.801 3.166a2.99 2.99 0 11-5.982 0 2.99 2.99 0 015.982 0zM16 11.225a2.99 2.99 0 11-5.982 0 2.99 2.99 0 015.982 0zm7.61 1.45a2.99 2.99 0 11-5.982 0 2.99 2.99 0 015.982 0z"/><path d="M0 0v32h32V0zm7.388 6.657a3.883 3.883 0 014.765-2.735l2.078.555c-3.012.446-5.596 2-7.373 4.227zM6.625 24.55a3.883 3.883 0 01-2.744-4.762l.574-2.149a11.565 11.565 0 004.515 7.523zm17.99.793a3.884 3.884 0 01-4.767 2.735l-2.617-.702a11.56 11.56 0 008.119-4.853zm-8.666 1.086c-5.812 0-10.524-4.712-10.524-10.524S10.137 5.381 15.949 5.381c5.812 0 10.524 4.712 10.524 10.524s-4.712 10.524-10.524 10.524h-.003zm12.176-14.244l-.733 2.75a11.534 11.534 0 00-4.368-8.099l2.35.615a3.883 3.883 0 012.743 4.761z"/></svg>