<svg xmlns="http://www.w3.org/2000/svg" width="32" height="32" viewBox="0 0 32 32"><path d="M11.741 15.898L9.712 19.5h12.691l-2.075-3.602H11.74zm20.259 0h-6.849l2.073 3.602H32v-3.602zm-8.515-2.319L17.11 2.465a.859.859 0 00-.71-.375h-.001a.877.877 0 00-.437.119l-1.607.917a.866.866 0 00-.323 1.182l8.718 15.21 3.125-1.781zm4.378 7.641l-1.849-3.227-3.125 1.781 1.861 3.234c.361-.198 2.73-1.555 3.113-1.788zM0 15.898V19.5h4.874l2.029-3.602H.001zm28.199 5.787c-.201-.179-.46-.008-.589.056l-.284.16-1.719.988c-.181.108-.321.191-.381.233-.317.218-.144 1.224.363 2.125.885 1.584 2.25 1.08 3.55 3.782l.242.508c.045.093.078.191.15.03 0-.01.096-.218.136-.323.529-1.314 1.321-5.089-1.469-7.559zM15.056 7.678l-1.67-.942a.916.916 0 00-1.03.092l-1.423 2.526 3.148 1.796 1.428-2.531a.919.919 0 00-.447-.938zM3.1 23.468a.087.087 0 00-.135.061l-.584 2.743-.053.25-.579 2.729c-.014.067.015.084.065.036l2.219-2.082 2.041-1.925a.086.086 0 00.034-.069.087.087 0 00-.051-.079l-1.376-.771-.218-.125zM10.787 9.61L3.165 23.124l2.009 1.145 1.144.644 7.617-13.506-3.148-1.796z"/></svg>