<svg xmlns="http://www.w3.org/2000/svg" width="32" height="32" viewBox="0 0 32 32"><path d="M0 0v32h32V0H0zm29.087 29.087H2.912V2.912H29.1v26.175z"/><path d="M7.063 11.813h3.5c.688 0 1.25-.563 1.25-1.25v-3.5c0-.688-.563-1.25-1.25-1.25h-3.5c-.688 0-1.25.563-1.25 1.25v3.5c0 .7.563 1.25 1.25 1.25zm9 0h3.5c.688 0 1.25-.563 1.25-1.25v-3.5c0-.688-.563-1.25-1.25-1.25h-3.5c-.688 0-1.25.563-1.25 1.25v3.5c0 .7.563 1.25 1.25 1.25zm-9 9h3.5c.688 0 1.25-.563 1.25-1.25v-3.5c0-.688-.563-1.25-1.25-1.25h-3.5c-.688 0-1.25.563-1.25 1.25v3.5c0 .7.563 1.25 1.25 1.25z"/></svg>