<svg xmlns="http://www.w3.org/2000/svg" width="32" height="32" viewBox="0 0 32 32"><path d="M25.712 4.912c-2.4-1.888-5.688-2.913-9.25-2.913-3.387 0-6.85 1.25-9.512 3.438C4.7 7.287 2 10.65 2 16.149c0 3.925 1.237 7.3 3.575 9.75 2.563 2.688 6.325 4.1 10.875 4.1 4.075 0 7.238-1.475 7.375-1.538l-1.275-2.712c-.025.012-2.7 1.25-6.088 1.25-3.713 0-6.725-1.1-8.713-3.175-1.8-1.875-2.75-4.537-2.75-7.675 0-4.325 2.088-6.95 3.85-8.387 2.1-1.725 4.938-2.75 7.613-2.75 2.9 0 5.525.813 7.387 2.275 2.075 1.637 3.137 3.95 3.137 6.888 0 5.662-3.85 6.35-4.012 6.375-.387.063-.9.025-1.337-.325-.637-.488-.262-2.325-.262-2.325l1.188-7.525s-2.5-1.463-5.538-1.287c-1.563.088-3.15.738-4.463 1.825a8.813 8.813 0 00-2.963 4.75c-.725 3.012.225 4.813.863 5.613.925 1.175 2.375 1.85 3.963 1.85 1.575 0 3.037-.387 4.25-1.137.1-.075.188-.15.288-.225.25.35.837 1.05 1.9 1.488.8.325 1.688.387 2.6.238.725-.113 2.6-.587 4.238-2.45 1.05-1.2 2.313-3.363 2.313-6.887-.025-3.825-1.5-7.025-4.3-9.238zm-7.299 12.451s-.188 1.038-.55 1.425c-.538.575-1.563 1.337-3.45 1.337-.662 0-1.262-.262-1.613-.712-.238-.3-.738-1.2-.3-3.063a5.836 5.836 0 011.963-3.137c.825-.688 1.787-1.088 2.713-1.137a5.281 5.281 0 011.087.037c.387.05.7.125.95.188l-.8 5.063z"/></svg>