<svg xmlns="http://www.w3.org/2000/svg" width="32" height="32" viewBox="0 0 32 32"><path d="M22.491 9.411l-2.184 2.184c1.61.852 2.689 2.517 2.689 4.434a5 5 0 01-2.581 4.377l2.148 2.187c2.088-1.462 3.436-3.857 3.436-6.566a7.984 7.984 0 00-3.481-6.598z"/><path d="M26.775 5.125l-2.136 2.139C27.3 9.291 29 12.461 29 16.028a10.97 10.97 0 01-4.264 8.691l2.109 2.156c3.159-2.584 5.16-6.482 5.16-10.847 0-4.396-2.029-8.319-5.202-10.882zM0 20.027l3 .21v-8.419l-3 .209v8zm6 .211l12 5.79v-20L6 11.819v8.419z"/></svg>