<svg xmlns="http://www.w3.org/2000/svg" width="32" height="32" viewBox="0 0 32 32"><path d="M16.012 19.825l.137-.038c.925-.212 1.563-.85 1.563-1.575 0-.8-.637-1.275-1.688-1.275s-1.713.488-1.713 1.238c-.012.8.575 1.35 1.7 1.65z"/><path d="M6 31h20V11H6v20zm5.738-12.812c0-1.962 1.637-3.188 4.275-3.188 2.613 0 4.262 1.225 4.262 3.188 0 1.163-.525 1.863-1.875 2.525 1.512.6 2.125 1.425 2.125 2.8 0 2.2-1.663 3.488-4.512 3.488-2.863 0-4.525-1.288-4.525-3.488 0-1.375.625-2.2 2.125-2.8-1.325-.65-1.875-1.387-1.875-2.525z"/><path d="M16.012 25.05c1.137 0 1.9-.587 1.9-1.512 0-.887-.675-1.525-2-1.863-1.213.337-1.813.975-1.813 1.863 0 .938.738 1.512 1.913 1.512zM24 4V1h-3v3H11V1H8v3H6v4h20V4z"/></svg>