<svg xmlns="http://www.w3.org/2000/svg" width="32" height="32" viewBox="0 0 32 32"><path d="M2.25 13.55c0-1.41.837-2.352 2.063-2.352s2.063.943 2.063 2.352-.838 2.352-2.063 2.352-2.063-.943-2.063-2.352zm6.375 8.835v-3.528c-.018-.962-.57-1.615-1.389-1.672l-1.486-.106-1.438 1.438-1.438-1.438-1.481.104c-.819.058-1.375.711-1.389 1.672v3.239c.021 1.396.204 2.74.531 4.026 2-1.72 4.797-2.976 8.089-3.735zM16 14.367c1.225 0 2.059-.943 2.059-2.352S17.225 9.663 16 9.663s-2.059.941-2.059 2.351.834 2.354 2.059 2.354zm0 7.211h.007c1.517 0 3.012.095 4.479.279-.135-.435-.111-.864-.111-1.295v-3.239c-.017-.962-.633-1.616-1.453-1.674l-1.481-.104L16 16.98l-1.438-1.438-1.481.104c-.819.057-1.434.711-1.451 1.673v3.239c0 .43.024.858.064 1.274a34.466 34.466 0 014.246-.254h.063zm11.688-5.676c1.225 0 2.059-.943 2.059-2.352s-.834-2.352-2.059-2.352-2.063.943-2.063 2.352.837 2.352 2.063 2.352zM32 18.858c-.017-.962-.57-1.615-1.389-1.672l-1.486-.106-1.438 1.438-1.438-1.438-1.481.104c-.819.058-1.375.711-1.389 1.672v3.527c3.289.759 6.086 2.015 8.111 3.613.301-1.163.485-2.503.509-3.883v-3.254zm-4.321 8.237c-3.094-1.625-7.241-2.517-11.678-2.517s-8.584.894-11.678 2.517C1.703 28.469.15 30.243.01 32h31.977c-.14-1.758-1.692-3.531-4.311-4.905z"/></svg>