<svg xmlns="http://www.w3.org/2000/svg" width="32" height="32" viewBox="0 0 32 32"><path d="M18.5 0v8h8z"/><path d="M15.5 0h-10v20.375h21V11h-11zm9.238 30.363c-1.1 0-1.988-.925-1.988-2.75 0-1.8.975-2.738 2.012-2.738.425 0 .762.075 1.025.163l.563-1.438c-.625-.25-1.15-.337-1.825-.337-2.337 0-3.75 1.675-3.75 4.45 0 1.35.337 2.425 1 3.175.675.775 1.563 1.125 2.85 1.125.75 0 1.238-.075 1.837-.337l-.5-1.525c-.313.1-.738.212-1.225.212zm-8.363-7.113c-1.012 0-1.787.325-2.363.988-.688.788-1.075 1.975-1.075 3.337 0 1.288.262 2.275.813 3.087.613.9 1.45 1.337 2.613 1.337 1.012 0 1.788-.313 2.363-.988.7-.813 1.075-1.962 1.075-3.387 0-1.238-.262-2.238-.813-3.038-.6-.913-1.438-1.337-2.613-1.337zm0 6.988c-.912 0-1.525-1.113-1.525-2.613s.613-2.613 1.525-2.613c.913 0 1.525 1.113 1.525 2.613-.012 1.5-.625 2.613-1.525 2.613zM7.6 23.4H5.5v8.462h1.987c1.513 0 2.288-.175 2.962-.637.938-.663 1.45-1.9 1.45-3.587 0-1.413-.363-2.512-1.05-3.225-.713-.75-1.6-1.012-3.25-1.012zm1.363 6.538c-.363.25-.875.387-1.55.413v-5.462c.913.025 1.325.163 1.737.538.488.425.787 1.262.787 2.175-.012 1.075-.363 1.938-.975 2.337z"/></svg>