<svg xmlns="http://www.w3.org/2000/svg" width="32" height="32" viewBox="0 0 32 32"><path d="M21.488 7.325c-.438 0-.813.15-1.1.425v-.188c0-1.125-.663-1.875-1.65-1.875-.45 0-.837.162-1.125.45-.125-.938-.75-1.538-1.625-1.538-.738 0-1.3.425-1.525 1.125-.287-.35-.713-.55-1.213-.55-.975 0-1.65.75-1.65 1.875v2.975a1.548 1.548 0 00-1.1-.425c-.975 0-1.65.75-1.65 1.875v6.263l3.425 5.475V25.4h8.637v-3.85l2.188-4.925V9.2c.038-1.125-.625-1.875-1.613-1.875zm5.849 3.988l-1.425 1.425L28.362 16l-2.45 3.262 1.425 1.425 4.688-4.688zm-22.649 0L0 16.001l4.688 4.688 1.425-1.425-2.462-3.262 2.462-3.262z"/></svg>