<svg xmlns="http://www.w3.org/2000/svg" width="32" height="32" viewBox="0 0 32 32"><path d="M1 22h8v10H1V22zm11-6.998h8V32h-8V15.003zM23 19h8v13h-8V19z"/><path d="M14.383 10.25a2.44 2.44 0 00.115-.749 2.47 2.47 0 00-.217-1.017l.006.016 4.435-3.851c.365.22.806.351 1.277.351.351 0 .686-.072.989-.203l-.016.006 5.364 5.929a2.517 2.517 0 00-.339 1.269c0 .687.272 1.31.715 1.767l-.001-.001a2.5 2.5 0 10.724-4.032l.015-.006-5.337-5.9a2.5 2.5 0 10-4.387-.282l-.006-.015-4.419 3.839a2.5 2.5 0 00-3.764 2.543L9.535 9.9l-4.244 2.138a2.51 2.51 0 10.672 1.325l.002.015 4.24-2.137a2.501 2.501 0 004.173-.97l.005-.018z"/></svg>