<svg xmlns="http://www.w3.org/2000/svg" width="32" height="32" viewBox="0 0 32 32"><path d="M14.938 25.625c-.425-.75-1.162-.988-1.8-.613L10.563 26.5c-1.188-1.038-2.238-2.288-3.075-3.738s-1.4-2.975-1.7-4.525l2.575-1.488c.65-.375.8-1.125.375-1.875L6.9 11.712c-.425-.75-1.162-.988-1.8-.613-1.325.762-2.288 1.7-2.825 2.275a.828.828 0 00-.2.45c-.325 3.6.425 7.325 2.362 10.7a18.125 18.125 0 008.075 7.4.74.74 0 00.488.05c.775-.175 2.063-.55 3.387-1.313.65-.375.8-1.125.375-1.875l-1.825-3.163z"/><path d="M21.775 0H12v22h16V6.225L21.775 0zM15 6h7v3h-7V6zm10 9H15v-3h10v3z"/></svg>