<svg xmlns="http://www.w3.org/2000/svg" width="32" height="32" viewBox="0 0 32 32"><path d="M8 15c2.188 0 3.675-1.688 3.675-4.2S10.187 6.6 8 6.6c-2.188 0-3.675 1.688-3.675 4.2S5.812 15 8 15zm5.425 3.2l-2.75-.2L8 20.663 5.338 18l-2.75.188c-1.525.113-2.55 1.325-2.587 3.113v7.7h16v-7.7c-.037-1.788-1.063-3-2.575-3.1zM25.5 10.825c1.775 0 2.988-1.363 2.988-3.412S27.276 4 25.5 4c-1.775 0-2.988 1.363-2.988 3.413s1.212 3.412 2.988 3.412zm6.5 4.863c-.025-1.45-.863-2.438-2.1-2.525l-2.238-.15-2.163 2.15-2.163-2.162-2.238.15c-1.238.088-2.063 1.075-2.087 2.525v6.313h13c-.012-2.775-.012-5.725-.012-6.3z"/></svg>