<svg xmlns="http://www.w3.org/2000/svg" width="32" height="32" viewBox="0 0 32 32"><path d="M5.5 0v20.375h21V0zm6.204 3.025a2.25 2.25 0 11-2.25 2.25 2.25 2.25 0 012.25-2.25zM8.5 16.375l3.204-4.75L13.71 14.6 18 8.375l5.5 8zm11.872 15.477h1.906v-3.544h3.8v-1.49h-3.8v-1.931h3.971v-1.491h-5.878v8.456zM9.514 24.741c.705 0 1.047.146 1.831.574l.594-1.491c-.863-.391-1.53-.574-2.537-.574-1.125 0-1.786.256-2.457.831-.951.781-1.444 2.044-1.444 3.641 0 1.344.346 2.395 1.053 3.165C7.237 31.645 8.015 32 9.348 32h.056c.921 0 1.793-.207 2.573-.578l-.036.016v-4.313H8.919v1.491h1.334v1.699c-.24.124-.523.196-.824.196h-.012.001c-1.125 0-1.912-1.113-1.912-2.86-.003-1.871.841-2.91 2.011-2.91zm5.689-1.345h1.906v8.456h-1.906v-8.456z"/></svg>