<svg xmlns="http://www.w3.org/2000/svg" width="32" height="32" viewBox="0 0 32 32"><path d="M16 0C7.162 0 0 7.162 0 16s7.162 16 16 16 16-7.163 16-16S24.837 0 16 0zm0 29C8.838 29 3 23.163 3 16c0-1.575.288-3.088.8-4.488l1.038 3.637 2.213 3.275h2.363v1.587l1.675 2v3.625l1.588 1.762 4.475-7.175v-3.038L10.64 15.41h-.887l-.713-1.063 1.488-1.875h2.45l1.425-4.675-3.037-2.712H8.941a13.007 13.007 0 017.063-2.087c1.8 0 3.525.375 5.087 1.038v1.675l-1.863.825 1.225 2.737 1.65-.738h4.55a12.7 12.7 0 011.563 3h-5.712l-2.675 2.975.475 3.363h3l.863 6.163h2.038a12.936 12.936 0 01-10.2 4.962z"/></svg>