<svg xmlns="http://www.w3.org/2000/svg" width="32" height="32" viewBox="0 0 32 32"><path d="M26 14v-4h-2v4h-4v2h4v4h2v-4h4v-2h-4zM19.552 2h-7.569C6.944 2 3.768 5.25 3.768 8.981c0 3.806 3.029 5.813 5.965 5.813.165 0 .324 0 .467-.008a4.269 4.269 0 00-.287 1.471c0 1.019.545 1.971.912 2.504-6.46.351-8.875 3.375-8.875 6.036C1.946 26.742 3.83 30 9.749 30s9.125-3.602 9.125-6.81c0-4.686-5-5.625-5-7.768 0-2.421 3.711-2.17 3.711-7.125-.01-1.923-.938-3.797-2.499-4.673h2.355zm-3.757 22.386c0 2.192-1.611 3.4-4.537 3.4-3.203 0-5.526-1.625-5.526-3.863 0-2.383 2.279-3.861 5.948-3.861h.614c.321.31.665.601 1.027.869 1.65 1.258 2.475 2.13 2.475 3.455zM13.519 11.91a2.193 2.193 0 01-1.379 1.098 2.794 2.794 0 01-.79.118c-.681 0-2.376-.351-3.417-3.609-.322-1.01-1.176-4.375 1.39-5.277.238-.089.514-.142.801-.146 1.37 0 2.627 1.365 3.352 3.656.54 1.684.555 3.201.044 4.16z"/></svg>