<svg xmlns="http://www.w3.org/2000/svg" width="32" height="32" viewBox="0 0 32 32"><path d="M13.85 14.325c.54-.144.978-.498 1.231-.967.431-.81.426-2.05-.009-3.414-.599-1.875-1.654-2.987-2.824-2.987a2.13 2.13 0 00-.727.13c-1.47.519-1.933 2.164-1.221 4.383.6 1.875 1.65 2.955 2.875 2.955.241-.001.473-.037.692-.103zm1.025 5.69c-.449-.343-.69-.526-.82-.64h-.625c-3.024 0-4.83 1.172-4.83 3.136 0 1.846 1.854 3.136 4.508 3.136 2.419 0 3.75-1 3.75-2.819.004-1.105-.635-1.788-1.982-2.814z"/><path d="M0 0v32h32.063V0zm11.953 27.067c-4.527 0-5.97-2.5-5.97-3.988 0-2.082 1.935-4.453 7.125-4.635-.24-.319-.75-1.09-.75-1.89.011-.409.099-.794.25-1.145a3.86 3.86 0 01-.664.045c-2.25 0-4.566-1.5-4.566-4.42-.003-2.857 2.433-5.285 6.29-5.285h5.795l-1.615 1h-1.804c1.195.875 1.905 2.166 1.905 3.634 0 3.797-2.841 3.666-2.841 5.521 0 1.638 3.829 2.36 3.829 5.947 0 2.456-2.456 5.215-6.984 5.215zM29.25 16.25h-4v3.875h-2V16.25h-3.875v-2h3.875v-3.875h2v3.875h4z"/></svg>