<svg xmlns="http://www.w3.org/2000/svg" width="32" height="32" viewBox="0 0 32 32"><path d="M25.9 3H6.1C4.462 3 3.138 4.338 3.138 6v20c0 1.663 1.325 3 2.962 3h19.788c1.637 0 2.962-1.337 2.962-3V6c.012-1.662-1.313-3-2.95-3zM16 11c2.738 0 4.95 2.238 4.95 5s-2.212 5-4.95 5-4.95-2.238-4.95-5 2.213-5 4.95-5zm9.9 14.05c0 .55-.438 1-.988 1H7.099a.992.992 0 01-.987-1V13.913h2.237A8.863 8.863 0 008.087 16c0 4.425 3.55 8 7.912 8 4.375 0 7.912-3.575 7.912-8 0-.688-.1-1.45-.262-2.088h2.238v11.137zm0-15.1c0 .55-.45 1-1 1h-2.988c-.55 0-1-.45-1-1V6.963c0-.55.45-1 1-1H24.9c.55 0 1 .45 1 1V9.95z"/></svg>