<svg xmlns="http://www.w3.org/2000/svg" width="32" height="32" viewBox="0 0 32 32"><path d="M23 16c0 3.913-3.137 7.075-7 7.075S9 19.912 9 16c0-.613.088-1.287.225-1.85H7.25V24a.88.88 0 00.875.887h15.75A.88.88 0 0024.75 24v-9.85h-1.988c.15.563.238 1.238.238 1.85z"/><path d="M20.375 16c0 2.444-1.959 4.425-4.375 4.425S11.625 18.444 11.625 16s1.959-4.425 4.375-4.425 4.375 1.981 4.375 4.425zm3.5-8.875h-2.65a.89.89 0 00-.887.887v2.65c0 .488.4.887.887.887h2.65a.89.89 0 00.887-.887V8a.88.88 0 00-.887-.875z"/><path d="M0 0v32h32V0H0zm27.375 24.85c0 1.462-1.175 2.65-2.625 2.65H7.25c-1.45 0-2.625-1.188-2.625-2.65V7.15C4.625 5.687 5.8 4.5 7.25 4.5h17.5c1.45 0 2.625 1.188 2.625 2.65v17.7z"/></svg>