<svg xmlns="http://www.w3.org/2000/svg" width="32" height="32" viewBox="0 0 32 32"><path d="M.725 11.054L.5 10.929 0 13.625l.138.059c1.278.553 2.308.758 4 .787V16h1.487v-1.582c2.938-.293 4.455-1.565 4.455-3.904 0-1.375-.47-2.306-1.482-2.925-.598-.351-1.3-.601-2.741-.964V4.047a9.476 9.476 0 012.797.678l.141.059.6-2.586-.169-.051a13.801 13.801 0 00-3.332-.629L5.851-.001h-1.6v1.519c-.886.058-1.434.169-1.942.375C.903 2.444.097 3.689.097 5.303c0 1.362.551 2.299 1.736 2.946.515.274 1.149.514 2.313.875v2.838a6.89 6.89 0 01-3.452-.927zm4.9-1.508c1.043.303 1.317.572 1.317 1.162 0 .732-.449 1.09-1.317 1.201zM3.232 5.125c0-.589.265-.875 1.018-1v2.089c-.893-.284-1.018-.576-1.018-1.089zM0 23.855l13.075-8.71 4.934 3.921 9.928-8.274-1.955-1.918h6.019v5.968l-1.927-1.922-12.016 10.014-5.133-4.079L.001 27.463zM23.5 32H32V16.227l-8.5 7.014zm-10.731-8.514l-1.269.805V32h9v-6.23l-2.416 1.94zM0 32h8.5v-5.668L0 32z"/></svg>