<svg xmlns="http://www.w3.org/2000/svg" width="32" height="32" viewBox="0 0 32 32"><path d="M25.3 2.71a6.623 6.623 0 00-6.289 4.874L19 7.63a5.748 5.748 0 00-3.63.645l.03-.015L.89 20.44a2.469 2.469 0 00-.317 3.484L.57 23.92l4.73 5.64a2.476 2.476 0 003.484.307l-.004.003L22.92 18a4.394 4.394 0 001.07-1.62l.01-.03c.19-.82.92-4.31 1.15-5.75a2.58 2.58 0 00-.307-1.881l.007.012a2.386 2.386 0 00-1.841-1.149L23 7.581a.901.901 0 00-1.089.634l-.001.006c-.128.405-.202.87-.202 1.353 0 .742.174 1.442.484 2.064l-.012-.027a2.326 2.326 0 01-.557 2.788l-.003.002a2.479 2.479 0 01-1.684.656 2.48 2.48 0 01-1.209-.312l.013.006a2.383 2.383 0 01-.844-3.271l-.006.011c.252-.436.621-.78 1.065-.994l.015-.006a6.473 6.473 0 001.623 3.174l-.003-.004a.14.14 0 00.21 0l.28-.27a1.199 1.199 0 00.207-1.515l.003.005a4.9 4.9 0 116.73 1.518l-.02.012a4.94 4.94 0 01-1.708.685l-.032.005c-.496.111-.864.54-.88 1.058v.532a.17.17 0 00.149.15h.001l.114.001a6.57 6.57 0 10-.361-13.13l.017-.001z"/></svg>