<svg xmlns="http://www.w3.org/2000/svg" width="32" height="32" viewBox="0 0 32 32"><path d="M9.675 24.613c2.113.887 4.063 1.35 5.65 1.35 1.612 0 2.475-.525 2.475-1.55 0-.525-.262-.962-.762-1.25-.6-.363-.863-.462-3.238-1.35-2.113-.788-2.875-1.188-3.662-1.887-.925-.788-1.45-1.975-1.45-3.337 0-1.95.787-3.275 2.737-4.625C9.737 10.651 9.15 9.601 9.15 7.751c0-3.6 2.612-5.75 7-5.75 2.313 0 4.563.5 6.675 1.487l-1.25 3.9c-1.913-.888-3.637-1.35-5.012-1.35-1.35 0-2.075.525-2.075 1.525 0 .525.262.963.762 1.287.563.363.563.363 3.2 1.35 2.075.787 2.975 1.25 3.725 1.887.887.762 1.425 1.975 1.425 3.3 0 1.988-.788 3.3-2.775 4.65 1.75 1.325 2.313 2.375 2.313 4.225s-.825 3.5-2.212 4.488c-1.25.863-2.837 1.25-5.15 1.25-2.537 0-5.088-.525-7.325-1.488l1.225-3.9zm3.538-9.038c0 .625.363 1.063 1.25 1.55.525.3.762.4 2.638 1.188.225.137.462.225.688.325.863-.762 1.25-1.488 1.25-2.212 0-.625-.325-1.063-1.25-1.55-.525-.3-.725-.4-2.637-1.188-.225-.137-.463-.225-.688-.325-.85.787-1.25 1.488-1.25 2.213z"/></svg>