<svg xmlns="http://www.w3.org/2000/svg" width="32" height="32" viewBox="0 0 32 32"><path d="M6.18 11.54l1 4.13h-.62a2.67 2.67 0 00-2.67 2.67v11A2.67 2.67 0 006.56 32h18.88a2.67 2.67 0 002.67-2.67v-11a2.67 2.67 0 00-2.67-2.67h-15l-1.22-5a7.886 7.886 0 01-.214-1.023L9 9.59l-.07-.52a5.103 5.103 0 013.966-5.704l.034-.006c2.38-.65 4.19-.1 5.52 1.68.405.575.744 1.237.984 1.945l.016.055 1.11 4.19c.31 1.13.69 1.39 1.93 1.08s1.37-.93 1.07-1.92l-1.12-4.18a10.154 10.154 0 00-1.5-3.029l.02.029C18.86.38 15.72-.59 12.11.35c-3.652.92-6.312 4.174-6.312 8.051 0 .384.026.762.077 1.133l-.005-.043c.07.61.22 1.39.22 1.39s.08.6.09.66z"/></svg>