<svg xmlns="http://www.w3.org/2000/svg" width="32" height="32" viewBox="0 0 32 32"><path d="M5.5 0v20.375h21V0h-21zm6.525 15.188v-10l8.7 5-8.7 5zm11.45 12.762L22.2 23.4h-1.75l2.363 8.45h1.337l2.35-8.45h-1.738zm-6.4-4.7c-.913 0-1.6.325-2.125.988-.625.788-.963 1.975-.963 3.337 0 1.288.238 2.275.725 3.087.55.9 1.3 1.337 2.35 1.337.913 0 1.6-.313 2.125-.988.625-.813.962-1.962.962-3.387 0-1.238-.238-2.238-.725-3.038-.55-.913-1.3-1.337-2.35-1.337zm-.012 6.988c-.85 0-1.425-1.113-1.425-2.613s.575-2.613 1.425-2.613c.85 0 1.425 1.113 1.425 2.613s-.563 2.613-1.425 2.613zm-7.901-3.976l-1.05-2.863H5.5v8.45h1.763v-5.825l1.287 3.95h1.213l1.3-3.95v5.825h1.75v-8.45H10.2z"/></svg>