<svg xmlns="http://www.w3.org/2000/svg" width="32" height="32" viewBox="0 0 32 32"><path d="M26.5 0h-21v20.375h21V0zM15.975 17c-2.475 0-4.125-1.313-4.125-3.25s1.65-3.25 4.125-3.25c.4 0 .775.037 1.125.1V3.375h3V13.75c0 1.938-1.65 3.25-4.125 3.25zm3.563 6.95c-.563-.425-1.188-.55-2.663-.55H14.5v8.45h1.9v-3.225h.788c1.175 0 1.837-.175 2.363-.575.575-.462.887-1.2.887-2.05.012-.887-.313-1.613-.9-2.05zm-1.5 3.075c-.275.15-.488.175-1.137.175h-.55v-2.363h.55c.625 0 .863.05 1.163.225.3.2.488.563.488 1.012s-.188.788-.512.95zm6.674.475c1.188-.188 1.75-.8 1.75-1.913 0-1.512-1.075-2.325-3.087-2.325a7.86 7.86 0 00-2.137.275l.4 1.45c.538-.163.988-.238 1.462-.238.938 0 1.462.35 1.462 1 0 .738-.688 1.063-2.25 1.075v1.363h.3c.675 0 1.075.063 1.387.212.413.188.65.538.65.962 0 .762-.6 1.175-1.7 1.175-.55 0-1.075-.075-1.587-.238l-.4 1.45c.663.188 1.35.275 2.175.275 1.137 0 1.9-.2 2.488-.637.575-.438.913-1.15.913-1.938.012-1.15-.587-1.775-1.825-1.95zm-15.55-1.238l-1.05-2.863H5.5v8.45h1.763v-5.825l1.287 3.95h1.213l1.3-3.95v5.825h1.75v-8.45H10.2z"/></svg>