<svg xmlns="http://www.w3.org/2000/svg" width="32" height="32" viewBox="0 0 32 32"><path d="M19.65 23.95c-.563-.425-1.188-.55-2.663-.55H14.6v8.462h1.913v-3.238h.8c1.175 0 1.85-.175 2.375-.575.575-.462.887-1.2.887-2.05-.012-.875-.337-1.613-.925-2.05zm-1.5 3.075c-.275.15-.488.175-1.137.175h-.55v-2.375h.55c.625 0 .863.05 1.163.225.3.2.488.563.488 1.012 0 .462-.188.8-.512.962zm8.275 1.538v-5.175h-2.238l-2.85 5.05v1.488h3.238v1.913h1.85v-1.913h.7v-1.363h-.7zm-1.8 0h-1.538l1.538-3.012v3.012zM26.5 0h-21v20.375h21V0zM12.025 15.188v-10l8.7 5-8.7 5zM9.162 26.95l-1.3-3.55H5.5v8.45h1.763v-5.825L8.551 29.6h1.213l1.3-3.575v5.825h1.75V23.4h-2.362z"/></svg>