<svg xmlns="http://www.w3.org/2000/svg" width="32" height="32" viewBox="0 0 32 32"><path d="M19.262 21.113L21.437 24H10.562l2.175-2.887-.925-.925-4.813 4.813 4.813 4.813.925-.925-2.175-2.887h10.875l-2.175 2.887.925.925L25 25.001l-4.813-4.813zM7.888 6.525a.995.995 0 00-1.35-.412l-3.75 2c-.038.012-.063.037-.1.063a1.469 1.469 0 00-.675 1.25v2.575l3 1.6v-4.4l2.475-1.313c.475-.263.65-.875.4-1.362zm-6.413 6.338c-.488-.262-1.087-.075-1.35.412s-.075 1.088.412 1.35L5 17v-2.262l-3.525-1.875zm22.638-6.338a.995.995 0 00.413 1.35L27.001 9.2v4.4l3-1.6V9.425a1.5 1.5 0 00-.675-1.25c-.038-.025-.063-.037-.1-.063l-3.75-2a1.022 1.022 0 00-1.363.412zm7.774 6.75a.994.994 0 00-1.35-.412l-3.525 1.875V17l4.475-2.375c.475-.262.65-.863.4-1.35zM7 5c.362 0 .7.1 1 .263V4h16v1.263c.3-.175.637-.263 1-.263.325 0 .65.075.938.237l.063.037V1.999h-20v3.262l.063-.037a2.03 2.03 0 01.938-.225z"/><path d="M24 8.725V15H8V8.725c-.025.012-.037.025-.063.037L5.999 9.799v7.2h20v-7.2l-1.938-1.025a.23.23 0 00-.063-.05z"/></svg>