<svg xmlns="http://www.w3.org/2000/svg" width="32" height="32" viewBox="0 0 32 32"><path d="M18.5-.075v8h8z"/><path d="M15.5-.075h-10V20.3h21v-9.375h-11zm-4.95 23.95c-.563-.425-1.188-.55-2.662-.55H5.5v8.463h1.913v-3.225h.8c1.175 0 1.85-.175 2.375-.575.575-.462.887-1.2.887-2.05-.012-.887-.338-1.625-.925-2.063zm-1.5 3.075c-.275.15-.488.175-1.138.175h-.55V24.75h.55c.625 0 .862.05 1.163.225.3.2.488.563.488 1.012 0 .462-.188.813-.512.962zm9.65-2.625c-.8-.738-1.775-1-3.613-1h-2.35v8.463h2.213c1.688 0 2.55-.175 3.313-.637 1.05-.663 1.613-1.9 1.613-3.587 0-1.425-.4-2.525-1.175-3.238zm-1.762 5.538c-.425.288-1.05.425-1.925.425h-.363v-5.475h.363c1.188 0 1.65.125 2.113.538.488.425.788 1.262.788 2.175 0 1.075-.363 1.938-.975 2.337zm4.187 1.912h1.9v-3.538h3.3v-1.488h-3.3v-1.938H26.5v-1.488h-5.375z"/></svg>