<svg xmlns="http://www.w3.org/2000/svg" width="32" height="32" viewBox="0 0 32 32"><path d="M14.338 9.175c.938-.537 1.162-1.625.537-2.713l-2.637-4.575C11.613.812 10.563.462 9.625 1a17.528 17.528 0 00-4.1 3.3c-.15.175-.263.4-.287.65-.463 5.213.612 10.613 3.425 15.488s6.95 8.512 11.7 10.712c.225.1.475.125.7.075 1.113-.25 2.988-.8 4.9-1.9.938-.538 1.163-1.625.538-2.712l-2.65-4.575c-.625-1.075-1.675-1.425-2.613-.887l-3.725 2.15c-1.725-1.5-3.238-3.313-4.45-5.412s-2.025-4.313-2.463-6.563l3.737-2.15z"/></svg>