<svg xmlns="http://www.w3.org/2000/svg" width="32" height="32" viewBox="0 0 32 32"><path d="M10.3 23.95c-.563-.425-1.188-.55-2.662-.55H5.5v8.462h1.913v-3.238h.55c1.175 0 1.85-.175 2.375-.575.575-.462.887-1.2.887-2.05-.012-.875-.338-1.613-.925-2.05zm-1.5 3.075c-.275.15-.488.175-1.138.175h-.3v-2.375h.3c.625 0 .862.05 1.163.225.3.2.488.563.488 1.012 0 .462-.188.8-.512.962zm7.988.55v.863c-.7-1.55-2.25-5.038-2.25-5.038h-2.1v8.462h1.838v-4.95c.725 1.55 2.288 4.95 2.288 4.95h2.063V23.4H16.79v4.175zm7.287-2.837c.7 0 1.05.15 1.825.575l.587-1.488c-.863-.387-1.525-.575-2.538-.575-1.125 0-1.788.262-2.462.825-.95.788-1.438 2.038-1.438 3.637 0 1.35.35 2.4 1.05 3.163.688.762 1.462 1.113 2.788 1.113.988 0 1.913-.225 2.587-.563v-4.3h-3.025v1.488h1.337v1.7c-.325.137-.488.2-.837.2-1.137 0-1.913-1.113-1.913-2.863.025-1.875.875-2.913 2.038-2.913zM5.5 0v20.375h21V0h-21zm6.2 3.025c1.238 0 2.25 1.012 2.25 2.25s-1.012 2.25-2.25 2.25-2.25-1.013-2.25-2.25 1.012-2.25 2.25-2.25zm-3.2 13.35l3.2-4.75 2.012 2.975L18 8.375l5.5 8h-15z"/></svg>