<svg xmlns="http://www.w3.org/2000/svg" width="32" height="32" viewBox="0 0 32 32"><path d="M18.5-.075v8h8z"/><path d="M15.5-.075h-10V20.3h21v-9.375h-11zm-4.95 23.95c-.563-.425-1.188-.55-2.662-.55H5.5v8.463h1.913v-3.225h.8c1.175 0 1.85-.175 2.375-.575.575-.462.887-1.2.887-2.05-.012-.887-.338-1.625-.925-2.063zm-1.5 3.075c-.275.15-.488.175-1.138.175h-.55V24.75h.55c.625 0 .862.05 1.163.225.3.2.488.563.488 1.012 0 .462-.188.813-.512.962zm8.837-3.075c-.563-.425-1.188-.55-2.662-.55h-2.388v8.463h1.912v-3.225h.8c1.175 0 1.85-.175 2.375-.575.575-.462.887-1.2.887-2.05-.012-.887-.337-1.625-.925-2.063zm-1.5 3.075c-.275.15-.488.175-1.137.175h-.55V24.75h.55c.625 0 .863.05 1.163.225.3.2.488.563.488 1.012 0 .462-.188.813-.512.962zm3.276-2.137h2.45v6.962h1.913v-6.962h2.475v-1.488h-6.838z"/></svg>