<svg xmlns="http://www.w3.org/2000/svg" width="32" height="32" viewBox="0 0 32 32"><path d="M19.5 26.5c0 1.933-1.459 3.5-3.5 3.5s-3.5-1.567-3.5-3.5S13.959 23 16 23s3.5 1.567 3.5 3.5zm4.256-22.695q-2.234-2.027-6.506-2.027-4.185 0-8.351 2.178l1.665 4.17q3.396-1.936 5.799-1.938 1.464 0 2.317.704t.854 1.905v.037a2.48 2.48 0 01-.613 1.636q-.607.711-2.671 2.136-1.464 1.033-1.933 1.454c-.302.27-.553.59-.741.948-.334.643-.316 1.751-.316 3.34v1.654h5.477v-.769c0-1.139.021-1.93.309-2.375s1.058-1.085 2.309-1.924q2.459-1.633 3.415-3.031t.957-3.369q-.001-2.908-1.971-4.728z"/></svg>