<svg xmlns="http://www.w3.org/2000/svg" width="32" height="32" viewBox="0 0 32 32"><path d="M0 0v32h32V0zm4 15.931v-.023c0-3.279 1.311-6.251 3.438-8.422l-.002.002a11.97 11.97 0 013.174-2.332l.068-.031.047-.024c.134-.065.269-.125.405-.19l.105-.045q.176-.076.356-.147l.15-.059c.105-.04.211-.079.318-.115l.19-.065c.095-.031.19-.061.285-.089l.223-.066.258-.067c.084-.022.169-.045.25-.064l.232-.05c.094-.02.188-.041.281-.059l.216-.036c.096-.016.193-.035.29-.049v9.345q0 .223-.008.445c0 .057-.006.114-.01.171 0 .089-.008.179-.015.269s-.012.145-.02.219-.012.144-.02.216-.021.168-.033.25c-.008.059-.014.119-.023.178-.014.094-.03.186-.045.28l-.024.144c-.019.102-.039.204-.06.304l-.023.114c-.024.111-.051.221-.078.331l-.019.079q-.046.179-.098.358l-.012.046c-.037.125-.078.258-.119.384v.012c-1.063 3.186-3.334 5.723-6.256 7.114l-.073.031a12.012 12.012 0 01-3.353-8.343v-.014.001zM16 28h-.001c-2.05 0-3.978-.52-5.661-1.435l.062.031a15.658 15.658 0 005.558-6.01l.041-.086c1.316 2.531 3.221 4.596 5.54 6.065l.064.038a11.737 11.737 0 01-5.591 1.398h-.013H16zm8.648-3.712c-4.131-1.971-6.934-6.113-6.934-10.911v-.034.002V4c5.854.901 10.285 5.903 10.285 11.939 0 3.241-1.277 6.184-3.356 8.352l.004-.004z"/></svg>