<svg xmlns="http://www.w3.org/2000/svg" width="32" height="32" viewBox="0 0 32 32"><path d="M18 2v10.902c0 5.625 3.299 10.552 8.089 12.765a14.033 14.033 0 003.91-9.739c0-7.042-5.169-12.878-11.92-13.919L18 1.999zm-4.709 15.334v-.014c.049-.148.095-.297.139-.448l.015-.054q.06-.207.114-.416l.023-.093c.031-.125.063-.256.091-.386l.026-.133a9.688 9.688 0 00.097-.523l.053-.326c.01-.069.018-.139.026-.207.012-.099.026-.195.037-.294s.015-.168.023-.25.018-.17.023-.25c.008-.104.012-.209.018-.314 0-.066.009-.133.011-.2q.009-.259.009-.519V1.998c-.114.016-.225.038-.338.056-.084.015-.168.026-.25.041-.11.021-.219.046-.329.069l-.271.058c-.099.022-.196.05-.295.075s-.201.051-.3.079l-.26.078c-.111.034-.223.067-.332.104l-.22.075c-.125.044-.25.087-.375.135l-.176.069q-.209.084-.415.172l-.125.053a16.9 16.9 0 00-.473.221l-.056.029a14.04 14.04 0 00-3.777 2.752l-.003.003a14.053 14.053 0 00-4.009 9.85c0 3.784 1.49 7.22 3.916 9.753l-.005-.005c3.495-1.656 6.147-4.614 7.361-8.233l.029-.099zM16 21.25c-1.533 2.951-3.753 5.357-6.457 7.069l-.074.044c1.892 1.03 4.143 1.635 6.535 1.635s4.643-.605 6.608-1.672l-.073.036c-2.78-1.756-5.003-4.162-6.491-7.012l-.048-.1z"/></svg>