<svg xmlns="http://www.w3.org/2000/svg" width="32" height="32" viewBox="0 0 32 32"><path d="M9.688 5.25c1.363 0 2.3-1.05 2.3-2.625S11.063 0 9.688 0c-1.363 0-2.3 1.05-2.3 2.625s.937 2.625 2.3 2.625zM8.137 32h3.1l.725-10.5h-4.55zm4.726-24.138L11.25 7.75 9.687 9.313 8.124 7.75l-1.612.112c-.888.063-1.487.775-1.513 1.825v3.688c0 2.825.938 5.625.938 5.625h7.5s.938-2.8.938-5.625V9.687c-.025-1.05-.625-1.763-1.512-1.825zM20 29h8v3h-8v-3zm0-28h8v3h-8V1zm0 21h5v3h-5v-3zm0-7h8v3h-8v-3zm0-7h5v3h-5V8z"/></svg>