<svg xmlns="http://www.w3.org/2000/svg" width="32" height="32" viewBox="0 0 32 32"><path d="M19 1v13h13V1H19zm6.6 2.013c.65 0 1.125.5 1.125 1.125s-.462 1.125-1.125 1.125c-.65 0-1.125-.5-1.125-1.125.012-.625.475-1.125 1.125-1.125zm2.025 8.975h-4.05v-1.325l1.012-.075V7.45h-1.012V6.262l3.038-.213v4.538l1.012.075v1.325zM9.5 14.375c2.6 0 4.363-2 4.363-4.988S12.101 4.4 9.5 4.4c-2.6 0-4.362 2-4.362 4.987s1.763 4.988 4.362 4.988zm6.438 3.8l-3.262-.238L9.501 21.1l-3.162-3.163-3.263.225v.012c-1.8.125-3.025 1.563-3.063 3.688v9.137h19v-9.137c-.05-2.125-1.275-3.563-3.075-3.688z"/></svg>