<svg xmlns="http://www.w3.org/2000/svg" width="32" height="32" viewBox="0 0 32 32"><path d="M31 19v-6h-4.875a10.4 10.4 0 00-.874-2.095l3.471-3.39-4.238-4.242-3.444 3.444a10.116 10.116 0 00-1.967-.822l-.074-4.894h-6v4.875c-.783.233-1.459.52-2.095.871l-3.39-3.474-4.242 4.242 3.444 3.444a10.116 10.116 0 00-.822 1.967L1 13v6h4.875a10.4 10.4 0 00.874 2.095l-3.476 3.39 4.242 4.242 3.444-3.444c.582.323 1.259.609 1.967.822L13 30.999h6v-4.875c.783-.233 1.459-.52 2.095-.871l3.39 3.471 4.242-4.242-3.444-3.444c.323-.581.609-1.257.822-1.964zm-15 2a5 5 0 11.001-10.001A5 5 0 0116 21z"/></svg>