<svg xmlns="http://www.w3.org/2000/svg" width="32" height="32" viewBox="0 0 32 32"><path d="M25.637 22.619c-1.222 0-2.313.481-3.15 1.238l-11.45-6.669c.081-.369.144-.738.144-1.125 0-.384-.066-.756-.144-1.125l11.325-6.603a4.804 4.804 0 003.278 1.3c2.666 0 4.819-2.153 4.819-4.819S28.306 0 25.637 0s-4.819 2.153-4.819 4.819c0 .384.066.756.144 1.125L9.637 12.547a4.804 4.804 0 00-3.278-1.3c-2.666 0-4.819 2.153-4.819 4.819s2.153 4.819 4.819 4.819a4.804 4.804 0 003.278-1.3l11.438 6.681a4.494 4.494 0 00-.128 1.044c0 2.587 2.103 4.691 4.691 4.691s4.691-2.103 4.691-4.691-2.103-4.691-4.691-4.691z"/></svg>