<svg xmlns="http://www.w3.org/2000/svg" width="32" height="32" viewBox="0 0 32 32"><path d="M20 15h-5.037v6h5.463zm-5.037 8v6h6.013l-.413-6zM3 29h9.963v-6H3.426zm25.575-6h-6.012l.425 6H29zm-.55-8h-6.012l.413 6h6.012zM8.575 1.063a5.193 5.193 0 00-5.2 5.188c0 .987.275 1.912.763 2.7l4.438 7.1 4.438-7.1a5.224 5.224 0 00.762-2.7c-.012-2.862-2.338-5.188-5.2-5.188zm0 7.387c-1.213 0-2.2-.987-2.2-2.2s.987-2.2 2.2-2.2 2.2.987 2.2 2.2c-.012 1.212-.988 2.2-2.2 2.2z"/><path d="M8.575 17.938L6.725 15h-2.75l-.413 6h9.4v-6h-2.55z"/></svg>