<svg xmlns="http://www.w3.org/2000/svg" width="32" height="32" viewBox="0 0 32 32"><path d="M31.375 15.738a8.663 8.663 0 00-1.637-5.063h-2.313c0-4.862-1.975-10.662-11.4-10.662S4.613 5.8 4.613 10.663H2.288a8.66 8.66 0 00-1.637 5.075c0 1.9.613 3.637 1.637 5.063h5.525V10.664c0-5.162 2.525-7.463 8.2-7.463s8.2 2.3 8.2 7.463v10.125c0 2.363-1.663 4.175-4.363 5.038-.663-1.4-2.075-2.375-3.837-2.375-2.488 0-4.262 1.913-4.262 4.262 0 2.363 1.775 4.262 4.262 4.262 1.988 0 3.525-1.225 4.063-2.913 4.463-1.15 7.35-4.238 7.35-8.288h2.313c1.038-1.4 1.637-3.15 1.637-5.037z"/></svg>