<svg xmlns="http://www.w3.org/2000/svg" width="32" height="32" viewBox="0 0 32 32"><path d="M26.95 12.85h-1.587a1.51 1.51 0 01-1.512-1.512c0-4.263-3.488-7.825-7.75-7.825h-4.813c-4.263 0-7.75 3.487-7.75 7.75v9.5c0 4.262 3.487 7.75 7.75 7.75h9.438c4.262 0 7.75-3.488 7.75-7.75v-6.387c0-.85-.688-1.525-1.525-1.525zM11.188 9.813h5.75c.837 0 1.512.675 1.512 1.512s-.675 1.512-1.512 1.512h-5.75c-.838 0-1.512-.675-1.512-1.512s.675-1.512 1.512-1.512zm9.625 12.35h-9.625c-.838 0-1.512-.675-1.512-1.512s.675-1.512 1.512-1.512h9.625a1.51 1.51 0 011.512 1.512c0 .825-.675 1.512-1.512 1.512z"/></svg>