<svg xmlns="http://www.w3.org/2000/svg" width="32" height="32" viewBox="0 0 32 32"><path d="M20.375 18.65h-8.75c-.9 0-1.625.725-1.625 1.625s.725 1.625 1.625 1.625h8.75c.9 0 1.625-.725 1.625-1.625s-.725-1.625-1.625-1.625zm-8.7-5.488h4.662c.925 0 1.675-.7 1.675-1.563s-.75-1.563-1.675-1.563h-4.662c-.925 0-1.675.7-1.675 1.563s.75 1.563 1.675 1.563z"/><path d="M0 0v32h32V0H0zm27.475 20.375c0 3.925-3.212 7.125-7.125 7.125h-8.688c-3.925 0-7.125-3.212-7.125-7.125v-8.75C4.537 7.7 7.75 4.5 11.662 4.5h4.425c3.925 0 7.125 3.287 7.125 7.2 0 .775.625 1.4 1.4 1.4h1.462c.775 0 1.4.625 1.4 1.4v5.875z"/></svg>