<svg xmlns="http://www.w3.org/2000/svg" width="32" height="32" viewBox="0 0 32 32"><path d="M10.45 28.163c-3.463 0-6.7-1.012-9.412-2.762.475.063.975.087 1.462.087 2.875 0 5.525-.988 7.625-2.625a6.154 6.154 0 01-5.737-4.262c.375.075.763.113 1.15.113.563 0 1.1-.075 1.612-.212a6.143 6.143 0 01-4.925-6.025v-.075A5.964 5.964 0 005 13.164a6.184 6.184 0 01-1.887-8.2c3.038 3.713 7.563 6.162 12.662 6.412-.1-.45-.162-.912-.162-1.4a6.14 6.14 0 016.138-6.138 6.18 6.18 0 014.488 1.938c1.4-.275 2.712-.787 3.9-1.487a6.198 6.198 0 01-2.7 3.4 12.348 12.348 0 003.525-.963 12.334 12.334 0 01-3.063 3.175c.012.262.012.525.012.8.012 8.1-6.175 17.462-17.462 17.462z"/></svg>