<svg xmlns="http://www.w3.org/2000/svg" width="32" height="32" viewBox="0 0 32 32"><path d="M25.563 11.738c0-.05 0-.1 0 0zM0 0v32h32V0H0zm25.563 11.738c0 .063 0 .113 0 0 0 6.512-4.962 14.012-14.012 14.012-2.775 0-5.375-.813-7.55-2.212.388.05.775.063 1.175.063a9.844 9.844 0 006.113-2.113 4.926 4.926 0 01-4.6-3.425 4.962 4.962 0 002.225-.088 4.923 4.923 0 01-3.95-4.825v-.063a4.816 4.816 0 002.225.613 4.866 4.866 0 01-2.188-4.075c0-.9.237-1.75.662-2.475a14.055 14.055 0 0010.162 5.15 4.756 4.756 0 01-.125-1.125c0-2.725 2.2-4.925 4.925-4.925 1.413 0 2.7.6 3.6 1.55 1.087.15 1.788-.013 3.137-.888-.363 1.15-.938 2.212-2.163 2.725.975.15 2.175-.25 3.063-.637-.563 1.3-1.587 2.213-2.7 2.737z"/></svg>