<svg xmlns="http://www.w3.org/2000/svg" width="32" height="32" viewBox="0 0 32 32"><path d="M15.716 16.499l6.56-3.991-6.56-3.991V16.5z"/><path d="M32 4.024a1.5 1.5 0 00-1.5-1.5h-25a1.5 1.5 0 00-1.5 1.5v8.48h3V5.522h22v13.97H15l.125.194c.477.795.91 1.714 1.249 2.678l.033.107v.015h14.094a1.5 1.5 0 001.5-1.5V4.025zM1.694 26.488a1.5 1.5 0 101.291 1.283l.001.008a1.501 1.501 0 00-1.285-1.29l-.008-.001z"/><path d="M2 14.669v2c5.971 0 10.811 4.84 10.811 10.811h2v-.018c0-3.531-1.433-6.727-3.75-9.038a12.726 12.726 0 00-9.043-3.755h-.019H2z"/><path d="M2 18.661v2a6.82 6.82 0 016.82 6.82h2v-.005a8.815 8.815 0 00-8.815-8.815H2z"/><path d="M2 22.652v2a2.828 2.828 0 012.828 2.828h2v-.004a4.824 4.824 0 00-4.824-4.824H2z"/></svg>