<svg xmlns="http://www.w3.org/2000/svg" width="32" height="32" viewBox="0 0 32 32"><path d="M12.963 15.262c-3.888.4-6.838 2.875-6.588 5.525.25 2.663 3.613 4.488 7.5 4.087s6.837-2.875 6.587-5.538c-.25-2.65-3.613-4.475-7.5-4.075zm-.125 7.488c-1.575.325-3.05-.5-3.313-1.85s.8-2.7 2.362-3.038c1.563-.325 3.05.5 3.313 1.85.262 1.363-.8 2.712-2.363 3.038z"/><path d="M0 0v32h32V0H0zm13.85 26.725C8.975 26.725 4 23.987 4 19.9c0-2.137 1.287-4.613 3.5-6.95 2.963-3.113 6.412-4.537 7.713-3.162.563.6.625 1.637.262 2.888-.2.625.563.287.563.287 2.387-1.05 4.488-1.113 5.25.037.4.613.363 1.463-.012 2.463-.175.463.063.537.387.638 1.35.438 2.85 1.5 2.85 3.387-.012 3.075-4.262 7.238-10.662 7.238zM23.988 13.65c-.45.1-.9-.213-1-.675-.25-1.262-1.212-2.263-2.438-2.525a.889.889 0 01-.663-1.025c.1-.475.538-.775 1-.675 1.875.4 3.363 1.938 3.75 3.875a.86.86 0 01-.65 1.025zm3.175-.025c-.462 0-.837-.387-.837-.875 0-3.162-2.475-5.725-5.55-5.725-.462 0-.837-.4-.837-.875s.375-.875.837-.875c3.988 0 7.225 3.35 7.225 7.475 0 .488-.375.875-.837.875z"/></svg>