<svg xmlns="http://www.w3.org/2000/svg" width="32" height="32" viewBox="0 0 32 32"><path d="M23.012 16.063c-.413-.125-.688-.213-.488-.762.462-1.2.512-2.225.012-2.95-.95-1.375-3.538-1.3-6.5-.037 0 0-.938.412-.688-.338.45-1.5.387-2.738-.325-3.463-1.613-1.638-5.887.063-9.55 3.8-2.75 2.787-4.35 5.75-4.35 8.313 0 4.9 6.175 8.188 12.213 8.188 7.925 0 13.188-4.988 13.188-8.7.025-2.25-1.837-3.538-3.512-4.05zm-9.649 10.55c-4.825.488-8.988-1.712-9.287-4.9-.313-3.188 3.35-6.15 8.162-6.625 4.825-.488 8.988 1.712 9.287 4.887.313 3.188-3.337 6.162-8.162 6.637zm17.512-14.55c0-4.95-4.025-8.963-8.962-8.963-.587 0-1.05.475-1.05 1.05s.475 1.05 1.05 1.05c3.8 0 6.875 3.075 6.875 6.875 0 .588.475 1.05 1.05 1.05a1.065 1.065 0 001.038-1.063zm-4.163-.151c-.488-2.325-2.325-4.175-4.65-4.65-.563-.125-1.113.25-1.238.813s.25 1.113.813 1.238a3.914 3.914 0 013.025 3.025c.125.563.675.938 1.238.813a1.04 1.04 0 00.813-1.238zM10.887 18.2c-1.938.387-3.25 2.025-2.925 3.637s2.163 2.613 4.112 2.225c1.938-.387 3.25-2.025 2.925-3.637-.338-1.625-2.175-2.613-4.113-2.225z"/></svg>