<svg xmlns="http://www.w3.org/2000/svg" width="32" height="32" viewBox="0 0 32 32"><path d="M12.085 3.25C5.969 3.25.994 7.5.994 12.716c0 2.785 1.344 5.291 3.795 7.105l-1.723 5.164 5.384-3.332c1.492.471 3.314.635 5.072.444 1.426 2.762 4.651 4.654 8.353 4.654a10.86 10.86 0 003.202-.521l-.077.021 4.468 2.5-1.25-4.275c1.683-1.395 2.784-3.339 2.784-5.555 0-4.053-3.525-7.284-7.991-7.761-.874-4.54-5.465-7.909-10.925-7.909zM8.17 8.475h.001A1.305 1.305 0 116.866 9.78a1.309 1.309 0 011.303-1.305zm7.83 0a1.305 1.305 0 11-1.305 1.305A1.309 1.309 0 0116 8.475zm5.875 3.915c4.401 0 7.829 2.959 7.829 6.525 0 1.929-.983 3.625-2.608 4.826l-.365.27.594 2.038-2.125-1.188-.275.091a9.519 9.519 0 01-3.039.488h-.017.001c-4.402 0-7.83-2.957-7.83-6.525s3.428-6.525 7.83-6.525zm-2.941 3.915a.979.979 0 10.979.979 1.001 1.001 0 00-.978-.979h-.001zm5.875 0a.979.979 0 10.979.979 1.001 1.001 0 00-.978-.979h-.001z"/></svg>