<svg xmlns="http://www.w3.org/2000/svg" width="32" height="32" viewBox="0 0 32 32"><path d="M16 12.07a1.044 1.044 0 10-1.044-1.044A1.047 1.047 0 0016 12.07zm4.696 1.043c-3.52 0-6.261 2.366-6.261 5.218s2.741 5.218 6.261 5.218h.013c.869 0 1.705-.143 2.485-.406l-.055.016.22-.074 1.696.95-.475-1.625.291-.216c1.3-.962 2.085-2.316 2.085-3.859-.001-2.855-2.742-5.221-6.261-5.221zm-2.348 4.696a.782.782 0 11.782-.782.802.802 0 01-.781.782h-.001zm4.696 0a.782.782 0 11.782-.782.802.802 0 01-.781.782h-.001zM9.739 9.982a1.044 1.044 0 101.044 1.044 1.047 1.047 0 00-1.044-1.044z"/><path d="M0 0v32h32V0zm26.771 26.191l-3.573-2a8.444 8.444 0 01-2.494.401h-.006c-2.957 0-5.536-1.508-6.678-3.716a10.207 10.207 0 01-4.129-.374l.072.019-4.308 2.664L7.03 19.06c-1.959-1.455-3.033-3.459-3.033-5.685 0-4.171 3.979-7.565 8.875-7.565 4.366 0 8.037 2.689 8.74 6.315 3.566.375 6.385 2.965 6.385 6.205 0 1.771-.875 3.326-2.226 4.442z"/></svg>