<svg xmlns="http://www.w3.org/2000/svg" width="32" height="32" viewBox="0 0 32 32"><path d="M15.526 2.949c-1.375.485-2.39.9-2.39 3.536V7.75l.826-.166V6.493c-.02-1.789.445-2.162 1.651-2.684a4.312 4.312 0 00-.094-.887zm2.404-.564c.05.228.094.511.123.8 2.164-.279 2.127.611 2.127 2.473v.688l.82-.168v-.52c0-2.89-.456-3.664-3.07-3.272z"/><path d="M9.412 8.5V4.697c-.026-2.355 1.191-3.072 3.436-3.603 3.383-.794 3.598 1.388 3.598 2.775V7.09l.829-.168V3.938c-.009-2.625-.828-4.591-4.591-3.737-2.027.459-4.098.976-4.098 4.423v4.037l.826-.162zm15.723-2.149l-22.866 4.55L2.25 27.45 25.125 32l4.602-1.659V8l-4.593-1.649zm-12.76 17.676l-5-.711v-4.191h5zm0-5.527h-5v-3.875l5-.713zm7 6.5L13 24.07v-4.945h6.375zm0-6.5H13v-4.675l6.375-.875z"/></svg>