<svg xmlns="http://www.w3.org/2000/svg" width="32" height="32" viewBox="0 0 32 32"><path d="M18.5-.075v8h8z"/><path d="M15.5-.075h-10V20.3h21v-9.375h-11zm-1.988 23.4h-2.15l-1.713 2.762-1.825-2.762H5.649l2.75 4.113-2.9 4.337h2.213l1.838-2.813 1.738 2.813h2.25l-2.875-4.288zm3.125 0h-1.9v8.45h4.787v-1.488h-2.887zm9.125 4.238c-.35-.262-.575-.375-1.825-.887s-1.425-.663-1.425-1.113c0-.55.413-.887 1.113-.887.625 0 1.063.1 2.188.512l.387-1.538c-1.038-.325-1.837-.462-2.7-.462-.85 0-1.488.188-1.988.563-.613.462-.962 1.225-.962 2.075 0 .7.25 1.225.75 1.6.35.262.637.4 1.663.825 1.363.563 1.55.712 1.55 1.2 0 .625-.462 1-1.238 1-.738 0-1.387-.163-2.462-.613l-.275 1.625c.962.337 1.762.475 2.837.475 2.025 0 3.125-.925 3.125-2.65 0-.775-.25-1.35-.738-1.725z"/></svg>