<svg xmlns="http://www.w3.org/2000/svg" width="32" height="32" viewBox="0 0 32 32"><path d="M0 0v32h32V0H0zm26.688 16.813c0 1.725-.212 3.462-.212 3.462s-.212 1.475-.85 2.125c-.813.85-1.725.85-2.137.9-2.988.212-7.488.225-7.488.225s-5.563-.05-7.262-.212c-.475-.087-1.55-.063-2.362-.913-.638-.65-.85-2.125-.85-2.125s-.213-1.725-.213-3.462v-1.625c0-1.725.213-3.463.213-3.463s.213-1.475.85-2.125c.813-.85 1.725-.85 2.138-.9 2.987-.213 7.475-.213 7.475-.213h.012s4.488 0 7.475.213c.413.05 1.325.05 2.137.9.637.65.85 2.125.85 2.125s.212 1.725.212 3.463v1.625z"/><path d="M12 20.65l9.363-4.863-9.375-4.887z"/></svg>