<svg xmlns="http://www.w3.org/2000/svg" width="32" height="32" viewBox="0 0 32 32"><path d="M31.675 10.35s-.313-2.2-1.275-3.175C29.188 5.9 27.825 5.9 27.188 5.825c-4.475-.325-11.2-.325-11.2-.325h-.012s-6.713 0-11.2.325c-.625.075-1.987.075-3.212 1.35C.639 8.138.326 10.35.326 10.35s-.325 2.588-.325 5.175v2.425c0 2.587.325 5.175.325 5.175s.313 2.2 1.275 3.175c1.212 1.275 2.813 1.238 3.525 1.363 2.563.25 10.875.325 10.875.325s6.725-.012 11.2-.337c.625-.075 1.988-.075 3.212-1.35.962-.975 1.275-3.175 1.275-3.175s.325-2.587.325-5.175v-2.425c-.013-2.588-.337-5.175-.337-5.175zM12.088 21.538V11.276l9.875 5.15-9.875 5.113z"/></svg>