<svg xmlns="http://www.w3.org/2000/svg" width="32" height="32" viewBox="0 0 32 32"><path d="M18.5 0v8h8z"/><path d="M26.5 11h-11V0h-10v20.375h21zM12 24.738v-1.337H5.65v1.488h3.963l-4.112 5.625v1.337h6.65v-1.488H7.888zm3.113-1.338h1.913v8.462h-1.912V23.4zm10.474.55c-.563-.425-1.688-.55-3.163-.55h-2.387v8.462h1.913v-3.238h1.3c1.175 0 1.85-.175 2.375-.575.575-.462.887-1.2.887-2.05-.012-.875-.337-1.613-.925-2.05zm-1.512 3.075c-.275.15-.488.175-1.137.175h-1.05v-2.375h1.05c.625 0 .863.05 1.163.225.3.2.488.563.488 1.012 0 .462-.175.8-.512.962z"/></svg>